<?xml version="1.0" encoding="UTF-8"?>
<svg id="logo_layer" data-name="logo layer" xmlns="http://www.w3.org/2000/svg" xmlns:xlink="http://www.w3.org/1999/xlink" viewBox="0 0 570.24 694.8">
  <defs>
    <style>
      .cls-1 {
        filter: url(#drop-shadow-2);
      }

      .cls-1, .cls-2 {
        fill: #075056;
      }

      .cls-2 {
        filter: url(#drop-shadow-1);
      }
    </style>
    <filter id="drop-shadow-1" x="0" y="0" width="570.24" height="694.8" filterUnits="userSpaceOnUse">
      <feOffset dx="11.61" dy="11.61"/>
      <feGaussianBlur result="blur" stdDeviation="9.68"/>
      <feFlood flood-color="#243037" flood-opacity=".25"/>
      <feComposite in2="blur" operator="in"/>
      <feComposite in="SourceGraphic"/>
    </filter>
    <filter id="drop-shadow-2" x="194.64" y="166.56" width="143.28" height="143.28" filterUnits="userSpaceOnUse">
      <feOffset dx="11.61" dy="11.61"/>
      <feGaussianBlur result="blur-2" stdDeviation="9.68"/>
      <feFlood flood-color="#243037" flood-opacity=".25"/>
      <feComposite in2="blur-2" operator="in"/>
      <feComposite in="SourceGraphic"/>
    </filter>
  </defs>
  <g id="logo">
    <path id="R" class="cls-2" d="M527.12,626.87l-96.81-203.79c-.86-1.81-.41-3.96,1.09-5.3,46.79-41.98,76.23-102.93,76.23-170.75,0-126.7-102.71-229.41-229.41-229.41-1.98,0-3.96.03-5.93.07-.18,0-.36,0-.53-.03-.37-.04-.74-.05-1.12-.05H35.66c-8.79,0-15.99,7.19-15.99,15.99l-2.25,605.1c0,8.44,6.91,15.35,15.36,15.35h94.37c9.17,0,13.28-2.73,18.01-14.56l30.3-77.65,33.61-86.26c9.74-25.25,23.75-16.01,36.81-.36l110.47,135.49,21.12,25.89c.18.22.36.43.55.65l3.94,4.83c4.81,5.8,9.3,10.11,18.11,10.11l111.48-.02c14.98,0,21.81-10.41,15.56-25.3ZM338.83,271.36c-.51,1.02-1.06,2.02-1.62,3l-4.79,7.58-63.54,100.58c-6.58,10.4-21.76,10.4-28.34,0l-63.15-99.99-.05-.05-5.42-8.58-.04-.05c-.39-.71-.78-1.42-1.15-2.14,0-.02,0-.04-.02-.04-6.92-13.16-10.83-28.14-10.83-44.02,0-52.37,42.44-94.81,94.8-94.81s94.81,42.44,94.81,94.81c0,15.75-3.85,30.63-10.68,43.7Z"/>
    <path id="dot" class="cls-1" d="M297.16,226.6c0,23.45-19.01,42.46-42.46,42.46s-42.45-19.01-42.45-42.46,19.01-42.45,42.45-42.45,42.46,19.01,42.46,42.45Z"/>
  </g>
</svg>